<svg xmlns="http://www.w3.org/2000/svg" width="64" height="64" fill="none"><style>@media (prefers-color-scheme:dark){path{fill:#e85555}}</style><path fill-rule="evenodd" clip-rule="evenodd" d="M31.595 7.761c8.477 0 15.97 3.137 20.424 7.905l2.144-3.103C48.97 7.356 40.792 4 31.595 4 22.38 4 14.193 7.367 9 12.586l2.143 3.108C15.593 10.91 23.1 7.76 31.595 7.76zm14.258 12.063c-3.703-2.845-8.685-4.413-14.027-4.413h.001c-5.342 0-10.323 1.568-14.028 4.413a15.966 15.966 0 00-2.317 2.161l-2.171-3.149c4.187-4.36 10.92-7.185 18.516-7.185 7.416 0 14.011 2.695 18.217 6.88l-2.16 3.133a16.479 16.479 0 00-2.03-1.84zm-2.215 7.993c-2.728-2.661-7.155-4.43-12.043-4.43-4.905 0-9.347 1.78-12.074 4.458l-2.155-3.127c3.408-3.113 8.517-5.092 14.229-5.092 5.695 0 10.793 1.97 14.2 5.07l-2.157 3.12zm-30.313 4.022h35.77c1.472 0 2.767 1.227 2.767 2.723v23.694c0 1.486-1.295 2.667-2.767 2.667H13.326c-1.466 0-2.61-1.18-2.61-2.668V34.563c0-1.496 1.144-2.723 2.61-2.723zM22.1 49.23c-2.511 0-4.55-2.078-4.55-4.623 0-2.558 2.039-4.63 4.55-4.63 2.515 0 4.553 2.07 4.553 4.63 0 2.545-2.038 4.621-4.553 4.621v.001zm13.72-4.623c0 2.545 2.042 4.622 4.563 4.622 2.515 0 4.554-2.077 4.554-4.622 0-2.56-2.039-4.63-4.554-4.63-2.52 0-4.562 2.072-4.562 4.63z" fill="#e03131"/><style xmlns="" id="autoconsent-prehide"/></svg>