<svg viewBox="0 0 436 512" xmlns="http://www.w3.org/2000/svg"><path d="m276.136 50.429 28.336-48.705c.941-1.619 3.101-2.212 4.78-1.25 1.69.968 2.26 3.08 1.299 4.733l-28.13 48.35c36.205 19.201 62.694 54.082 70.258 95.502H83.32c7.527-41.214 33.79-75.953 69.718-95.213l-27.59-48.519c-.941-1.655-.38-3.858 1.3-4.843a3.458 3.458 0 0 1 4.78 1.28l27.812 48.91c17.778-8.381 37.667-13.07 58.659-13.07 20.786 0 40.49 4.597 58.136 12.825Zm-117.8 56.834c7.753 0 14.038-6.238 14.038-13.932s-6.285-13.932-14.039-13.932c-7.753 0-14.038 6.238-14.038 13.932s6.285 13.932 14.038 13.932Zm147.406 303.02h21.062c15.504 0 28.073-12.468 28.073-27.849v-215.96H81.123v215.96c0 15.38 12.564 27.85 28.073 27.85h21.062v80.112c0 11.54 9.458 20.894 21.036 20.894h21.102c11.618 0 21.036-9.365 21.036-20.894v-80.113h49.136v80.113c0 11.54 9.458 20.894 21.036 20.894h21.102c11.618 0 21.036-9.365 21.036-20.894v-80.113Zm-28.077-303.02c7.753 0 14.038-6.238 14.038-13.932s-6.285-13.932-14.038-13.932c-7.754 0-14.04 6.238-14.04 13.932s6.286 13.932 14.04 13.932ZM.4 197.815v118.433c0 17.31 14.138 31.342 31.587 31.342 17.445 0 31.587-14.062 31.587-31.342V197.815c0-17.31-14.138-31.341-31.587-31.341C14.542 166.474.4 180.535.4 197.815Zm403.613-31.341c-17.445 0-31.587 14.061-31.587 31.341v118.433c0 17.31 14.138 31.342 31.587 31.342 17.445 0 31.587-14.062 31.587-31.342V197.815c0-17.31-14.138-31.341-31.587-31.341Z" fill="#ffffff" fill-rule="evenodd" class="fill-4a4a4a"></path></svg>